<?xml version="1.0" encoding="utf-8"?>
<!-- Generator: Adobe Illustrator 21.1.0, SVG Export Plug-In . SVG Version: 6.00 Build 0)  -->
<svg xmlns="http://www.w3.org/2000/svg" xmlns:xlink="http://www.w3.org/1999/xlink" version="1.1" x="0px" y="0px" viewBox="0 0 64 64" style="enable-background:new 0 0 64 64;" xml:space="preserve">
<style type="text/css">
	.st0{fill:#C2CDE7;}
	.st1{fill:#ACB7D0;}
	.st2{fill:#D6DFF2;}
	.st3{fill:#C5E4FA;}
	.st4{fill:#8D6C9F;}
	.st5{fill:#E3F2FF;}
	.st6{fill:#72CAAF;}
	.st7{fill:#ED7899;}
	.st8{fill:#85CBF8;}
	.st9{fill:#BBDEF9;}
	.st10{fill:#F9E3AE;}
	.st11{fill:#97E0BB;}
	.st12{fill:#CDA1A7;}
	.st13{fill:#D3A9B0;}
	.st14{fill:#C4939C;}
	.st15{fill:#ACE3FF;}
	.st16{fill:#F3F3F3;}
	.st17{fill:#D2EDFF;}
	.st18{fill:#F6D397;}
	.st19{fill:#CED9ED;}
	.st20{fill:#FFF8F8;}
	.st21{fill:#DEF0FF;}
	.st22{fill:#FFFFFF;}
	.st23{fill:#E0678F;}
	.st24{fill:#F994B3;}
	.st25{fill:#F5C872;}
	.st26{fill:#F9DD8F;}
	.st27{fill:#FAEFDE;}
	.st28{fill:#FFEB9B;}
	.st29{fill:#F75F83;}
	.st30{fill:#DADCEC;}
	.st31{fill:#F6445C;}
	.st32{fill:#EFD8BE;}
	.st33{fill:#FFEFB8;}
	.st34{fill:#DCE5F5;}
	.st35{fill:#FEE8B6;}
	.st36{fill:#5DBC9D;}
	.st37{fill:#B5C4E0;}
	.st38{fill:#C7D0E5;}
	.st39{fill:#FFF6DF;}
	.st40{fill:#6FC6F0;}
	.st41{fill:#CFD9ED;}
	.st42{fill:#9FDDFF;}
	.st43{fill:#CED8ED;}
	.st44{fill:#B8C2DD;}
	.st45{fill:#BFD2DF;}
	.st46{fill:#97CBE8;}
	.st47{fill:#869DB1;}
	.st48{fill:#FFF4D2;}
	.st49{fill:#7C527C;}
	.st50{fill:#D5E0F3;}
	.st51{fill:#FFF7F0;}
	.st52{fill:#A0AECB;}
	.st53{fill:#DEB4BA;}
	.st54{fill:#AED3ED;}
	.st55{fill:#FADB6F;}
	.st56{fill:#9CB0C3;}
	.st57{fill:#D3E0E8;}
	.st58{fill:#DCE9F0;}
	.st59{fill:#FFAAA4;}
	.st60{fill:#96D7F9;}
	.st61{fill:#8B8E98;}
	.st62{fill:#FEDAA4;}
	.st63{fill:#EB9697;}
	.st64{fill:#A9A7AE;}
	.st65{fill:#A5BAC6;}
	.st66{fill:#98C77C;}
</style>
<g id="_x35_0_Air_Conditioner_Climete_Cooler_House_Interior_Environment">
</g>
<g id="_x34_9_Thermometer_Heater_Climate_Control_House_Home">
</g>
<g id="_x34_8_Plan_Blueprint_Apartment_Home_House_Flat_Interior">
</g>
<g id="_x34_7_Plant_Pot_Green_Interior_Home_House">
</g>
<g id="_x34_6_Washing_Machine_Laundry_Bathroom_Interior_Home_House">
</g>
<g id="_x34_5_Radiator_Heat_Climate_Warm_Interior_House_Home">
</g>
<g id="_x34_4_Toaster_Bread_Electronic_Device_Kitchen_House">
</g>
<g id="_x34_3_Lamp_LED_Light_Interior_Home_House">
</g>
<g id="_x34_2_Window_Glass_Interior_Exterior_House_Home">
</g>
<g id="_x34_1_Chair_Armchair_Lounge_Furniture_House_Interior">
</g>
<g id="_x34_0_Image_Photo_Instant_Polaroid_Frames_Gallery">
</g>
<g id="_x33_9_Polaroid_Photocamera_Vintage_Photo_Image_Instant">
</g>
<g id="_x33_8_Printer_Print_Paper_Photo_Ink_Color_Polygraphy">
</g>
<g id="_x33_7_Memory_Card_Stick_Data_Files_Flash_Drive">
</g>
<g id="_x33_6_Image_Photo_Gallery_Slideshow_Landscape">
	<g>
		<path class="st9" d="M54,51H6c-1.7,0-3-1.3-3-3V14c0-1.7,1.3-3,3-3h48c1.7,0,3,1.3,3,3v34C57,49.7,55.7,51,54,51z"/>
		<path class="st21" d="M36,47l21-21c0,0,0.7-13.6,0.1-14.1L22,47H36z"/>
		<polygon class="st21" points="17.6,47 11,47 47,11 53.6,11   "/>
		<polygon class="st21" points="6,47 2,47 38,11 42,11   "/>
		<polygon class="st11" points="40,47 29,37 19,47   "/>
		<polygon class="st6" points="57,44 45,33 31,47 57,47   "/>
		<path class="st6" d="M3,47h54v1c0,1.7-1.3,3-3,3H6c-1.7,0-3-1.3-3-3V47z"/>
		<path class="st10" d="M57,15v36H7v1c0,1.7,1.3,3,3,3h48c1.7,0,3-1.3,3-3V18c0-1.7-1.3-3-3-3H57z"/>
		<circle class="st28" cx="17" cy="25" r="4"/>
		<g>
			<path class="st4" d="M22.1,25c0-2.8-2.2-5-5-5s-5,2.2-5,5c0,2.8,2.2,5,5,5S22.1,27.8,22.1,25z M17.1,28.3c-1.8,0-3.3-1.5-3.3-3.3     c0-1.8,1.5-3.3,3.3-3.3s3.3,1.5,3.3,3.3C20.4,26.8,18.9,28.3,17.1,28.3z"/>
			<path class="st4" d="M59,14h-1v-1c0-1.7-1.3-3-3-3H5c-1.7,0-3,1.3-3,3v36c0,1.7,1.3,3,3,3h1v1c0,0.8,0.3,1.6,0.9,2.1     C7.5,55.7,8.2,56,9,56h50c1.7,0,3-1.3,3-3V17C62,15.3,60.7,14,59,14z M5,50c-0.6,0-1-0.5-1-1V13c0-0.6,0.4-1,1-1h50     c0.6,0,1,0.4,1,1v36c0,0.6-0.4,1-1,1H5z M60,53c0,0.6-0.4,1-1,1H9c-0.3,0-0.5-0.1-0.7-0.3C8.1,53.5,8,53.3,8,53v-1h47     c1.7,0,3-1.3,3-3V16h1c0.6,0,1,0.4,1,1V53z"/>
			<path class="st4" d="M16,33v2c0,0.6,0.4,1,1,1c0.6,0,1-0.4,1-1v-2c0-0.6-0.4-1-1-1C16.4,32,16,32.4,16,33z"/>
			<path class="st4" d="M17,18c0.6,0,1-0.4,1-1v-2c0-0.6-0.4-1-1-1c-0.6,0-1,0.4-1,1v2C16,17.6,16.4,18,17,18z"/>
			<path class="st4" d="M24,25c0,0.6,0.4,1,1,1h2c0.6,0,1-0.4,1-1c0-0.6-0.4-1-1-1h-2C24.4,24,24,24.4,24,25z"/>
			<path class="st4" d="M7,26h2c0.6,0,1-0.4,1-1c0-0.6-0.4-1-1-1H7c-0.6,0-1,0.4-1,1C6,25.6,6.4,26,7,26z"/>
			<path class="st4" d="M21.1,34.2c0.2,0.3,0.5,0.5,0.9,0.5c0.1,0,0.3,0,0.5-0.1c0.5-0.3,0.6-0.9,0.4-1.4l-1-1.7     c-0.3-0.5-0.8-0.7-1.4-0.4c-0.5,0.3-0.6,0.9-0.4,1.4L21.1,34.2z"/>
			<path class="st4" d="M12.1,18.6c0.2,0.3,0.5,0.5,0.9,0.5c0.1,0,0.3,0,0.5-0.1c0.5-0.3,0.6-0.9,0.4-1.4l-1-1.7     c-0.3-0.5-0.8-0.7-1.4-0.4c-0.5,0.3-0.6,0.9-0.4,1.4L12.1,18.6z"/>
			<path class="st4" d="M23.1,21.5c0.2,0.3,0.5,0.5,0.9,0.5c0.2,0,0.3-0.1,0.5-0.2l1.7-1c0.5-0.3,0.7-0.8,0.4-1.4     c-0.3-0.5-0.9-0.6-1.4-0.4l-1.7,1C22.9,20.4,22.8,21,23.1,21.5z"/>
			<path class="st4" d="M9.6,28.1l-1.7,1c-0.5,0.3-0.7,0.8-0.4,1.4C7.7,30.8,8,31,8.4,31c0.2,0,0.3-0.1,0.5-0.2l1.7-1     c0.5-0.3,0.7-0.8,0.4-1.4C10.6,28,10.1,27.9,9.6,28.1z"/>
			<path class="st4" d="M23.4,29.9l1.7,1c0.2,0.1,0.3,0.2,0.5,0.2c0.4,0,0.7-0.2,0.9-0.5c0.3-0.5,0.1-1.1-0.4-1.4l-1.7-1     c-0.5-0.3-1.1-0.2-1.4,0.4C22.8,29,22.9,29.6,23.4,29.9z"/>
			<path class="st4" d="M7.8,20.9l1.7,1C9.7,22,9.9,22,10.1,22c0.4,0,0.7-0.2,0.9-0.5c0.3-0.5,0.1-1.1-0.4-1.4l-1.7-1     c-0.5-0.3-1.1-0.2-1.4,0.4C7.2,20,7.4,20.6,7.8,20.9z"/>
			<path class="st4" d="M20.5,18.9c0.2,0.1,0.4,0.2,0.5,0.1c0.3,0,0.7-0.2,0.9-0.5l1-1.7c0.3-0.5,0.2-1.1-0.4-1.4     c-0.5-0.3-1.1-0.1-1.4,0.4l-1,1.7C19.9,18.1,20,18.6,20.5,18.9z"/>
			<path class="st4" d="M13.5,31.1c-0.5-0.3-1.1-0.1-1.4,0.4l-1,1.7c-0.3,0.5-0.2,1.1,0.4,1.4c0.2,0.1,0.4,0.2,0.5,0.1     c0.3,0,0.7-0.2,0.9-0.5l1-1.7C14.1,31.9,14,31.4,13.5,31.1z"/>
			<path class="st4" d="M53,46H32.4l11.9-11.9c0.4-0.4,1-0.4,1.4,0l6.6,6.6c0.4,0.4,1,0.4,1.4,0c0.4-0.4,0.4-1,0-1.4l-6.6-6.6     c-1.1-1.1-3.1-1.1-4.2,0l-8.4,8.4l-3.4-3.4c-1.1-1.2-3-1.2-4.2,0L18.6,46H15c-0.6,0-1,0.4-1,1c0,0.6,0.5,1,1,1H53     c0.5,0,1-0.4,1-1C54,46.4,53.5,46,53,46z M28.3,39.1c0.4-0.4,1-0.4,1.4,0l3.4,3.4L29.6,46h-8.2L28.3,39.1z"/>
			<path class="st4" d="M11,46H7c-0.6,0-1,0.4-1,1c0,0.6,0.4,1,1,1h4c0.6,0,1-0.4,1-1C12,46.4,11.6,46,11,46z"/>
		</g>
	</g>
</g>
<g id="_x33_5_Film_Tape_Photo_Frame_Image">
</g>
<g id="_x33_4_Film_Movie_Photo_Image_Slideshow_Projection_1_">
</g>
<g id="_x33_3_Photo_Photocamera_Lens_Image_Gallery_Shot">
</g>
<g id="_x33_2_Crop_Tool_Photo_Frame_Image">
</g>
<g id="_x33_1_Video_Camera_Photo_Movie_Film">
</g>
<g id="_x33_0_Radiator_Cooler_Heater_Pipes_Antifreeze">
</g>
<g id="_x32_9_Freshener_Spruce_Needles_Smell_Clean">
</g>
<g id="_x32_8_Jerrycan_Can_Gasoline_Fuel_Oil_Tank">
</g>
<g id="_x32_7_Brake_Disk_Car_Part_Automotive_Wheel">
</g>
<g id="_x32_6_Parking_Garage_Place_Car_Automotive_Space">
</g>
<g id="_x32_5_Drive_Car_Transmission_Selector_Gearbox_Shifter">
</g>
<g id="_x32_4_Car_Door_Automotive_Handle_Window">
</g>
<g id="_x32_3_Steering_Wheel_Car_Automotive_Helm_Rudder">
</g>
<g id="_x32_2_Battery_Electricity_Automotive_Charge">
</g>
<g id="_x32_1_Vehicle_Car_Truck_Automobile_Cargo">
</g>
<g id="_x32_0_Directory_Office_Folder_File_Paper">
</g>
<g id="_x31_9_Office_Home_Building_Work_House">
</g>
<g id="_x31_8_Aim_Circle_Arrow_Office_Bow">
</g>
<g id="_x31_7_Trash_Delete_Garbage_Basket_File_Waste">
</g>
<g id="_x31_6_Display_Chart_Graph_Computer_Equalizer">
</g>
<g id="_x31_5_Presentation_Graph_Keynote_Chart_Screen_Whiteboard_Diagram">
</g>
<g id="_x31_4_Mail_Stamp_Postmark_Address_Message">
</g>
<g id="_x31_3_Inbox_Box_Paper_Office_Mail_Incoming_Archive">
</g>
<g id="_x31_2_Office_Coffee_Cup_Tea_Hot_Drink">
</g>
<g id="_x31_1_Paper_Shredder_Office_Recycle_Destruction">
</g>
<g id="_x31_0_Bag_Shopping_Cart_Store_Sale_Shop">
</g>
<g id="_x30_9_Calculator_Numbers_Math_Finance_Plus_Multiplication">
</g>
<g id="_x30_8_Present_Sale_Discount_Box_Gift">
</g>
<g id="_x30_7_Wallet_Money_Cash_Dollar_Deposit">
</g>
<g id="_x30_6_Coupon_Ticket_Percent_Sale_Discount">
</g>
<g id="_x30_5_Safe_Money_Deposit_Bank_Account">
</g>
<g id="_x30_4_Shopping_Cart_Bag_Store_Shop_Commerce">
</g>
<g id="_x30_3_Visa_Mastercard_Credit_Card_Plastic_Transaction_Money">
</g>
<g id="_x30_2_Bill_Payment_Money_Finance_Paper_Dollar_Currency">
</g>
<g id="_x30_1_Money_Dollar_Banknote_Bank_Currency_Finance">
</g>
</svg>
