<?xml version="1.0" encoding="iso-8859-1"?>
<!-- Generator: Adobe Illustrator 20.1.0, SVG Export Plug-In . SVG Version: 6.00 Build 0)  -->
<svg xmlns="http://www.w3.org/2000/svg" xmlns:xlink="http://www.w3.org/1999/xlink" version="1.1" id="&#1057;&#1083;&#1086;&#1081;_1" x="0px" y="0px" viewBox="0 0 64 64" style="enable-background:new 0 0 64 64;" xml:space="preserve">
<linearGradient id="SVGID_1__43627" gradientUnits="userSpaceOnUse" x1="11.4397" y1="25.8311" x2="11.4397" y2="29.5834" spreadMethod="reflect">
	<stop offset="0" style="stop-color:#6DC7FF"/>
	<stop offset="1" style="stop-color:#E6ABFF"/>
</linearGradient>
<circle style="fill:url(#SVGID_1__43627);" cx="11.44" cy="27.624" r="1.846"/>
<linearGradient id="SVGID_2__43627" gradientUnits="userSpaceOnUse" x1="52.5469" y1="23.9137" x2="52.5469" y2="27.8424" spreadMethod="reflect">
	<stop offset="0" style="stop-color:#6DC7FF"/>
	<stop offset="1" style="stop-color:#E6ABFF"/>
</linearGradient>
<circle style="fill:url(#SVGID_2__43627);" cx="52.547" cy="25.666" r="1.846"/>
<linearGradient id="SVGID_3__43627" gradientUnits="userSpaceOnUse" x1="32.0018" y1="8.1163" x2="32.0018" y2="56.647" spreadMethod="reflect">
	<stop offset="0" style="stop-color:#1A6DFF"/>
	<stop offset="1" style="stop-color:#C822FF"/>
</linearGradient>
<path style="fill:url(#SVGID_3__43627);" d="M57.169,23.654L42.815,9.299c-1.11-1.11-2.915-1.11-4.025,0l-2.611,2.609  c-0.858,0.86-1.043,2.134-0.571,3.182l-1.983,1.983l-0.598-0.597c-0.886-0.886-2.064-1.375-3.318-1.375  c-0.393,0-0.773,0.064-1.145,0.158c-0.113-0.51-0.361-0.997-0.757-1.393l-2.61-2.611c-1.11-1.108-2.915-1.107-4.025,0.001  L6.816,25.611c-1.108,1.11-1.075,2.915,0.034,4.025l2.643,2.61v0.001c0.5,0.554,1.251,0.83,1.979,0.83  c0.184,0,0.35-0.018,0.531-0.053c0.044,1.14,0.478,2.268,1.346,3.136l0.594,0.598l-0.6,0.598c-1.469,1.469-1.47,3.86-0.001,5.329  c0.633,0.633,1.437,0.976,2.264,1.064c-0.278,1.222,0.048,2.555,0.998,3.504c0.735,0.735,1.7,1.102,2.665,1.102  c0.282,0,0.562-0.041,0.838-0.104c0.088,0.827,0.431,1.631,1.064,2.264c0.735,0.735,1.7,1.102,2.665,1.102  c0.282,0,0.563-0.041,0.839-0.104c0.088,0.827,0.431,1.632,1.064,2.265c0.735,0.735,1.7,1.102,2.665,1.102  c0.94,0,1.877-0.355,2.604-1.053l0.603,0.603c0.735,0.735,1.7,1.102,2.665,1.102c0.965,0,1.929-0.367,2.664-1.102  c0.469-0.469,0.771-1.036,0.941-1.633c0.67,0.508,1.465,0.777,2.267,0.777c0.965,0,1.93-0.367,2.665-1.102  c0.527-0.527,0.856-1.174,1.005-1.852c0.492,0.222,1.019,0.344,1.549,0.344c0.965,0,1.93-0.367,2.665-1.102  c0.712-0.711,1.104-1.658,1.104-2.665c0-0.545-0.124-1.068-0.342-1.55c0.677-0.149,1.323-0.479,1.849-1.005  c1.469-1.47,1.468-3.861,0-5.329l-2.556-2.556l2.556-2.556c0.868-0.868,1.31-1.996,1.354-3.135c0.181,0.035,0.364,0.053,0.548,0.053  c0.729,0,1.458-0.277,2.012-0.832l2.61-2.61C58.279,26.568,58.279,24.764,57.169,23.654z M10.842,30.831l-2.609-2.609  c-0.33-0.329-0.33-0.867-0.001-1.196l14.355-14.354c0.328-0.33,0.866-0.329,1.196-0.001l2.609,2.61  c0.33,0.329,0.33,0.867,0.001,1.196l-3.263,3.262l0,0l-7.178,7.177v0l-2.61,2.61c0,0,0,0,0,0l-1.304,1.304  C11.71,31.161,11.17,31.161,10.842,30.831z M14.757,38.771c0.345-0.345,0.797-0.517,1.25-0.517c0.452,0,0.906,0.172,1.25,0.517  c0.334,0.334,0.518,0.778,0.518,1.25c0,0.472-0.184,0.915-0.518,1.249c-0.69,0.69-1.811,0.69-2.501,0  C14.068,40.581,14.068,39.461,14.757,38.771z M18.019,45.839c-0.69-0.69-0.69-1.811,0-2.501l0.653-0.653l0.653-0.653  c0.669-0.666,1.833-0.666,2.5,0c0.69,0.69,0.69,1.811,0,2.501l-0.653,0.653l-0.653,0.653C19.83,46.529,18.709,46.527,18.019,45.839z   M22.587,49.101c-0.689-0.69-0.689-1.81,0-2.5c0.345-0.345,0.797-0.517,1.25-0.517s0.906,0.172,1.25,0.517  c0.689,0.69,0.689,1.81,0,2.5C24.398,49.791,23.276,49.791,22.587,49.101z M29.655,52.364c-0.69,0.689-1.81,0.691-2.5,0  c-0.69-0.69-0.69-1.811,0-2.501c0.345-0.345,0.797-0.517,1.249-0.517c0.453,0,0.906,0.172,1.25,0.517  C30.344,50.553,30.344,51.674,29.655,52.364z M49.23,43.229c-0.689,0.689-1.81,0.691-2.501,0l-3.262-3.263l0,0l-4.568-4.568  l-1.415,1.415l9.135,9.135c0.334,0.334,0.518,0.778,0.518,1.249c0,0.473-0.184,0.916-0.518,1.25c-0.69,0.69-1.811,0.69-2.501,0  l-1.304-1.304l-1.958-1.958l-5.872-5.872l-1.415,1.415l5.872,5.872l1.958,1.958c0.689,0.689,0.689,1.81,0,2.5  c-0.69,0.69-1.811,0.69-2.501,0l-1.958-1.958l-5.872-5.872l-1.415,1.415l5.872,5.872c0.69,0.69,0.69,1.811,0,2.501  c-0.691,0.688-1.811,0.688-2.5,0l-0.984-0.984c0.312-1.244-0.004-2.614-0.974-3.585c-0.95-0.95-2.282-1.276-3.503-0.998  c-0.088-0.827-0.431-1.631-1.064-2.264c-0.633-0.633-1.438-0.976-2.265-1.064c0.278-1.222-0.048-2.555-0.998-3.504  c-0.949-0.949-2.281-1.276-3.502-0.998c-0.091-0.854-0.449-1.649-1.065-2.264c-0.693-0.693-1.591-1.047-2.501-1.086l-0.164-0.164  l0.055-0.055l-1.305-1.305c-1.047-1.047-1.049-2.75-0.005-3.799l13.057-13.056c0.001-0.001,0.001-0.002,0.002-0.002  c1.016-1.014,2.785-1.012,3.802,0.002l0.598,0.597l-3.861,3.861l0,0l-1.957,1.958c-0.886,0.885-1.375,2.063-1.375,3.317  c0,1.253,0.488,2.432,1.375,3.318c1.829,1.829,4.805,1.829,6.634,0l3.207-3.208L49.23,40.729  C49.919,41.417,49.919,42.539,49.23,43.229z M49.23,32.788l-2.556,2.556l-10.44-10.44l-4.622,4.623c-1.048,1.048-2.755,1.05-3.805,0  c-0.508-0.509-0.788-1.184-0.788-1.903c0-0.718,0.28-1.394,0.788-1.902l3.915-3.915l5.165-5.165l12.348,12.348  C50.278,30.038,50.277,31.741,49.23,32.788z M55.755,26.264l-2.61,2.61c-0.33,0.33-0.866,0.33-1.196,0l-1.3-1.3  c-0.001-0.002-0.002-0.003-0.004-0.005l-1.958-1.958l0,0l-7.177-7.178v0l-0.953-0.953l-2.961-2.961  c-0.33-0.329-0.33-0.867-0.001-1.196l2.61-2.609c0.165-0.165,0.381-0.247,0.598-0.247c0.217,0,0.433,0.082,0.598,0.247  l14.355,14.355C56.084,25.398,56.084,25.934,55.755,26.264z"/>
</svg>
