<svg height="512pt" viewBox="0 -8 512.00101 512" width="512pt" xmlns="http://www.w3.org/2000/svg"><path d="m382.722656 237.113281h23.6875v217.671875h-23.6875zm0 0" fill="#244f5e"/><path d="m266.007812 171.734375c4.65625-2.039063 9.808594-3.164063 15.21875-3.164063 21.042969 0 38.105469 17.066407 38.105469 38.105469 0 21.042969-17.0625 38.109375-38.105469 38.109375-5.410156 0-10.5625-1.128906-15.21875-3.167968h-205.074218c-4.65625 2.039062-9.808594 3.167968-15.214844 3.167968-21.042969 0-38.109375-17.066406-38.109375-38.109375 0-21.039062 17.066406-38.105469 38.109375-38.105469 5.40625 0 10.558594 1.125 15.214844 3.164063" fill="#ce8d77"/><path d="m188.035156 369.007812h12.179688c26.097656 0 49.449218 16.207032 58.578125 40.65625l29.03125 77.773438h-204.511719v-77.929688c0-22.371093 18.140625-40.5 40.503906-40.5h15.085938" fill="#e6e6e6"/><path d="m156.28125 369.007812h-32.464844c-22.363281 0-40.503906 18.128907-40.503906 40.5v77.929688h32.46875v-77.929688c0-22.371093 18.140625-40.5 40.5-40.5zm0 0" fill="#ccc"/><path d="m163.472656 391.328125c-13.636718 0-24.6875-11.054687-24.6875-24.691406v-46h49.375v46c0 13.636719-11.054687 24.691406-24.6875 24.691406zm0 0" fill="#ce8d77"/><path d="m266.003906 139.589844v102.53125c0 56.628906-45.902344 102.535156-102.53125 102.535156s-102.535156-45.90625-102.535156-102.535156v-102.53125" fill="#e5baa8"/><path d="m162.742188 344.652344c-28.027344-.1875-53.371094-11.628906-71.773438-30.023438-18.558594-18.5625-30.03125-44.191406-30.03125-72.507812v-102.535156h46.164062v102.535156c0 28.320312 6.304688 53.945312 16.507813 72.507812 10.042969 18.265625 23.855469 29.667969 39.132813 30.023438zm0 0" fill="#ce8d77"/><path d="m309.4375 7.609375c-16.445312-.050781-29.796875 13.265625-29.796875 29.699219 0-16.402344-13.296875-29.699219-29.699219-29.699219s-29.703125 13.296875-29.703125 29.699219h-94.25c-35.925781 0-65.050781 29.125-65.050781 65.054687v82.351563c37.832031.808594 31.757812-45.125 31.757812-45.125h144.070313c56.144531 0 101.722656-45.238282 102.273437-101.253906.160157-16.496094-13.105468-30.675782-29.601562-30.726563zm0 0" fill="#244f5e"/><g fill="#183f49"><path d="m257.023438 8.59375c-2.421876-.640625-4.96875-.984375-7.59375-.984375-16.402344 0-29.699219 13.296875-29.699219 29.703125h15.183593c0-13.78125 9.386719-25.363281 22.109376-28.71875zm0 0"/><path d="m316.933594 8.59375c-2.421875-.640625-4.964844-.984375-7.589844-.984375-16.40625 0-29.703125 13.296875-29.703125 29.703125h15.183594c.003906-13.78125 9.386719-25.363281 22.109375-28.71875zm0 0"/><path d="m125.988281 37.3125h26.03125c-35.925781 0-65.050781 29.125-65.050781 65.050781v69.511719c-4.578125 7.433594-12.496094 13.128906-26.03125 12.839844v-82.351563c0-35.925781 29.125-65.050781 65.050781-65.050781zm0 0"/></g><path d="m182.679688 487.4375-19.207032-45.714844-19.203125 45.714844zm0 0" fill="#f25f5f"/><path d="m163.472656 441.722656 19.207032-22.828125-19.207032-27.566406-19.203125 27.566406zm0 0" fill="#f25f5f"/><path d="m404.535156 428.589844h-29.003906c-7.550781 0-13.675781 6.125-13.675781 13.675781v45.171875h42.679687c12.5625 0 22.742188-10.183594 22.742188-22.746094v-13.359375c0-12.558593-10.183594-22.742187-22.742188-22.742187zm0 0" fill="#e5baa8"/><path d="m284.742188 267.550781h219.648437v111.601563h-219.648437zm0 0" fill="#f4c84d"/><path d="m193.195312 278.371094c2.972657-2.972656 2.972657-7.789063 0-10.757813-2.972656-2.972656-7.789062-2.972656-10.761718 0-5.066406 5.0625-11.800782 7.851563-18.960938 7.851563-7.164062 0-13.898437-2.789063-18.964844-7.851563-2.96875-2.972656-7.789062-2.972656-10.757812 0-2.972656 2.96875-2.972656 7.789063 0 10.757813 7.9375 7.941406 18.496094 12.3125 29.722656 12.3125 11.226563 0 21.785156-4.371094 29.722656-12.3125zm0 0"/><path d="m208.871094 232.90625c4.203125 0 7.609375-3.40625 7.609375-7.609375v-23.160156c0-4.203125-3.40625-7.609375-7.609375-7.609375s-7.609375 3.40625-7.609375 7.609375v23.160156c0 4.203125 3.40625 7.609375 7.609375 7.609375zm0 0"/><path d="m118.070312 194.527344c-4.203124 0-7.609374 3.40625-7.609374 7.609375v23.160156c0 4.203125 3.40625 7.609375 7.609374 7.609375 4.203126 0 7.609376-3.40625 7.609376-7.609375v-23.160156c0-4.203125-3.40625-7.609375-7.609376-7.609375zm0 0"/><path d="m264.324219 402.730469c-9.226563-24.722657-33.160157-41.332031-59.546875-41.332031h-9.007813v-13.96875c42.09375-12.933594 73.515625-50.46875 77.425781-95.75 2.628907.464843 5.308594.714843 8.03125.714843 25.207032 0 45.714844-20.507812 45.714844-45.71875 0-25.207031-20.507812-45.714843-45.714844-45.714843-2.578124 0-5.117187.222656-7.613281.640624v-20.710937c15.035157-5.335937 28.832031-13.964844 40.492188-25.515625 20.695312-20.511719 32.253906-47.84375 32.542969-76.960938.097656-10.113281-3.953126-20.070312-11.109376-27.324218-7.027343-7.121094-16.289062-11.058594-26.078124-11.089844-10.011719-.0507812-19.386719 3.835938-26.460938 10.886719-1.21875 1.21875-2.34375 2.503906-3.371094 3.851562-6.824218-8.953125-17.59375-14.738281-29.6875-14.738281-17.964844 0-33.007812 12.765625-36.53125 29.699219h-39.71875c-4.203125 0-7.609375 3.410156-7.609375 7.609375 0 4.203125 3.40625 7.609375 7.609375 7.609375h46.550782c4.203124 0 7.609374-3.40625 7.609374-7.609375 0-12.179688 9.910157-22.089844 22.089844-22.089844 12.179688 0 22.089844 9.910156 22.089844 22.089844 0 4.203125 3.40625 7.609375 7.609375 7.609375s7.609375-3.40625 7.609375-7.609375c0-5.914063 2.304688-11.46875 6.496094-15.644532 4.171875-4.15625 9.707031-6.445312 15.597656-6.445312h.066406c5.707032.019531 11.140625 2.347656 15.296875 6.5625 4.332031 4.386719 6.78125 10.394531 6.71875 16.480469-.246093 25.089843-10.203125 48.632812-28.035156 66.300781-17.84375 17.679688-41.503906 27.417969-66.628906 27.417969h-144.066407c-2.191406 0-4.277343.945312-5.722656 2.59375-1.445312 1.648437-2.109375 3.839843-1.820312 6.011719.027344.195312 2.347656 19.980468-6.832032 30.226562-2.53125 2.828125-5.757812 4.6875-9.773437 5.613281v-74.0625c0-31.675781 25.769531-57.445312 57.441406-57.445312h17.265625c4.203125 0 7.609375-3.40625 7.609375-7.609375 0-4.199219-3.40625-7.609375-7.609375-7.609375h-17.265625c-40.066406 0-72.660156 32.597656-72.660156 72.664062v59.234375c-2.496094-.417968-5.035156-.636718-7.613281-.636718-25.207032 0-45.714844 20.507812-45.714844 45.714843s20.507812 45.714844 45.714844 45.714844c2.722656 0 5.402344-.246094 8.03125-.714844 3.910156 45.28125 35.332031 82.816407 77.425781 95.753907v13.964843h-7.355469c-9.140625 0-17.691406 2.5625-24.976562 7.007813-.238282.136718-.476563.285156-.703125.453125-13.46875 8.535156-22.429688 23.5625-22.429688 40.652343v77.925782c0 4.203125 3.402344 7.609375 7.605469 7.609375h60.9375.019531 38.410157.019531 59.910156c.007813 0 .015625.003906.023437.003906.011719 0 .023438-.003906.035157-.003906h45.152343c2.496094 0 4.832032-1.222657 6.25-3.269531 1.421876-2.050782 1.753907-4.664063.878907-7zm-52.253907-25.554688-27.890624 30.5625-7.960938-11.429687c8.476562-3.652344 15.082031-10.839844 17.964844-19.691406h10.59375c2.464844 0 4.902344.191406 7.292968.558593zm-56.351562 102.652344 7.753906-18.460937 7.757813 18.460937zm7.753906-75.191406 9.632813 13.824219-9.632813 11.445312-9.625-11.445312zm117.753906-228.457031c16.816407 0 30.496094 13.679687 30.496094 30.496093 0 16.816407-13.679687 30.5-30.496094 30.5-2.605468 0-5.148437-.324219-7.613281-.957031v-59.082031c2.464844-.632813 5.007813-.957031 7.613281-.957031zm-266.007812 30.496093c0-16.816406 13.679688-30.496093 30.5-30.496093 2.601562 0 5.148438.324218 7.609375.957031v59.082031c-2.460937.632812-5.007813.957031-7.609375.957031-16.820312 0-30.5-13.683593-30.5-30.5zm53.328125 35.445313v-50.238282c8.605469-1.207031 15.6875-4.859374 21.113281-10.917968 9.09375-10.152344 10.886719-24.625 10.996094-33.765625h136.109375c7.347656 0 14.582031-.71875 21.628906-2.121094v97.042969c0 52.34375-42.582031 94.925781-94.921875 94.925781-52.34375 0-94.925781-42.582031-94.925781-94.925781zm94.925781 110.144531c5.804688 0 11.511719-.457031 17.078125-1.328125 0 0-.03125 16.757812-.082031 17.277344-.003906.058594-.003906.121094-.007812.183594-.882813 8.59375-8.164063 15.320312-16.988282 15.320312-8.824218 0-16.105468-6.722656-16.992187-15.3125-.003907-.066406-.003907-.132812-.011719-.199219-.046875-.515625-.078125-17.269531-.078125-17.269531 5.566406.871094 11.269531 1.328125 17.082031 1.328125zm-30.71875 24.351563c2.882813 8.851562 9.492188 16.039062 17.976563 19.695312l-7.964844 11.425781-27.390625-30.019531c2.695312-.714844 5.523438-1.101562 8.441406-1.101562zm-41.832031 32.890624c0-9.597656 4.136719-18.246093 10.714844-24.265624l52.9375 58.015624-15.363281 36.570313h-48.289063zm157.710937 70.320313-3.667968-15.207031c-.988282-4.085938-5.097656-6.597656-9.183594-5.613282-4.082031.984376-6.597656 5.09375-5.613281 9.179688l2.808593 11.640625h-45.238281l-15.367187-36.574219 55.441406-60.75c10.042969 5.46875 18.105469 14.429688 22.253906 25.546875l26.792969 71.777344zm0 0"/><path d="m504.390625 259.941406h-90.371094v-22.828125c0-4.203125-3.40625-7.609375-7.609375-7.609375h-23.691406c-4.203125 0-7.609375 3.40625-7.609375 7.609375v22.828125h-90.367187c-4.203126 0-7.609376 3.40625-7.609376 7.609375v111.601563c0 4.199218 3.40625 7.609375 7.609376 7.609375h90.367187v34.242187c-11.539063.226563-20.863281 9.667969-20.863281 21.261719v45.171875c0 4.199219 3.40625 7.605469 7.609375 7.605469h42.679687c16.734375 0 30.351563-13.613281 30.351563-30.351563v-13.359375c0-13.421875-8.765625-24.832031-20.867188-28.824219v-35.746093h19.890625c4.203125 0 7.609375-3.410157 7.609375-7.609375 0-4.203125-3.40625-7.609375-7.609375-7.609375h-141.558594v-96.382813h204.429688v96.382813h-32.433594c-4.203125 0-7.609375 3.40625-7.609375 7.609375 0 4.199218 3.40625 7.609375 7.609375 7.609375h40.042969c4.203125 0 7.609375-3.410157 7.609375-7.609375v-111.601563c0-4.203125-3.40625-7.609375-7.609375-7.609375zm-134.925781 182.324219c0-3.34375 2.722656-6.066406 6.066406-6.066406h15.679688c3.152343 0 5.714843 2.566406 5.714843 5.71875 0 3.152343-2.5625 5.714843-5.714843 5.714843h-21.746094zm50.203125 9.066406v13.359375c0 8.347656-6.789063 15.136719-15.132813 15.136719h-35.070312v-16.976563h21.746094c11.542968 0 20.933593-9.390624 20.933593-20.933593 0-1.324219-.136719-2.613281-.371093-3.871094 4.699218 2.570313 7.894531 7.5625 7.894531 13.285156zm-20.867188-30.351562h-8.472656v-34.21875h8.472656zm-8.472656-176.257813h8.472656v15.21875h-8.472656zm0 0"/><path d="m324.933594 345.148438c-5.285156 0-8.160156-2.414063-10.464844-4.355469-1.457031-1.222657-2.714844-2.277344-4.179688-2.277344-2.847656 0-5.160156 3.800781-5.160156 6.28125 0 5.160156 8.617188 10.933594 20.148438 10.933594 12.800781 0 20.753906-7.257813 20.753906-18.945313 0-13.351562-9.824219-17.519531-17.714844-20.867187-5.332031-2.265625-9.933594-4.21875-9.933594-8.417969 0-4.054688 3.453126-6.378906 9.480469-6.378906 4.4375 0 6.910157 1.269531 8.71875 2.195312 1.167969.601563 2.097657 1.078125 3.167969 1.078125 3.304688 0 4.730469-4.101562 4.730469-6.195312 0-5.640625-10.445313-7.144531-16.617188-7.144531-10.242187 0-21.1875 4.59375-21.1875 17.480468 0 11.535156 8.675781 15.386719 16.328125 18.785156 6.074219 2.695313 11.324219 5.027344 11.324219 10.585938-.003906 5.339844-4.855469 7.242188-9.394531 7.242188zm0 0"/><path d="m372.992188 290.96875c-2.859376 0-6.511719 1.039062-7.390626 3.96875l-16.628906 54.191406c-.105468.421875-.179687.730469-.179687.925782 0 2.992187 4.332031 4.902343 7.316406 4.902343 2.253906 0 3.613281-.816406 4.035156-2.421875l3.21875-11.273437h19.34375l3.21875 11.265625c.425781 1.613281 1.78125 2.429687 4.035157 2.429687 2.914062 0 7.316406-1.957031 7.316406-4.902343 0-.238282-.058594-.460938-.128906-.722657l-16.675782-54.390625c-.878906-2.929687-4.441406-3.972656-7.480468-3.972656zm7.15625 41h-14.316407l7.160157-25.257812zm0 0"/><path d="m408.5625 291.484375c-2.699219 0-5.855469.96875-5.855469 3.699219v55.988281c0 2.601563 2.679688 3.785156 5.164063 3.785156h27.304687c2.371094 0 3.613281-2.597656 3.613281-5.164062 0-2.488281-1.128906-5.164063-3.613281-5.164063h-20.761719v-49.445312c0-2.554688-2.9375-3.699219-5.851562-3.699219zm0 0"/><path d="m484.007812 349.878906c0-3.089844-1.554687-5.25-3.785156-5.25h-24.121094v-16.804687h12.839844c2.484375 0 3.78125-2.292969 3.78125-4.558594 0-2.351563-1.296875-4.734375-3.78125-4.734375h-12.839844v-16.71875h24.121094c2.230469 0 3.785156-2.15625 3.785156-5.25 0-2.445312-1.183593-5.074219-3.785156-5.074219h-30.664062c-2.484375 0-5.164063 1.183594-5.164063 3.785157v55.898437c0 2.601563 2.679688 3.785156 5.164063 3.785156h30.664062c2.601563 0 3.785156-2.632812 3.785156-5.078125zm0 0"/></svg>