<?xml version="1.0" encoding="iso-8859-1"?>
<!-- Generator: Adobe Illustrator 23.0.0, SVG Export Plug-In . SVG Version: 6.00 Build 0)  -->
<svg xmlns="http://www.w3.org/2000/svg" xmlns:xlink="http://www.w3.org/1999/xlink" version="1.1" id="Layer_4" x="0px" y="0px" viewBox="0 0 100 100" style="enable-background:new 0 0 100 100;" xml:space="preserve">
<path style="fill:#78CDD4;" d="M71,82H55l-5,5l-5-5H29c-6.075,0-11-4.925-11-11V29c0-6.075,4.925-11,11-11h42  c6.075,0,11,4.925,11,11v42C82,77.075,77.075,82,71,82z"/>
<path style="fill:#FEFDEF;" d="M61,63.5v4c0,0.28-0.22,0.5-0.5,0.5h-18c-0.28,0-0.5-0.22-0.5-0.5v-4c0-0.28,0.22-0.5,0.5-0.5h4  c0.28,0,0.5-0.22,0.5-0.5v-15c0-0.28-0.22-0.5-0.5-0.5h-3c-0.28,0-0.5-0.22-0.5-0.5v-4c0-0.28,0.22-0.5,0.5-0.5h12  c0.28,0,0.5,0.22,0.5,0.5v20c0,0.28,0.22,0.5,0.5,0.5h4C60.78,63,61,63.22,61,63.5z"/>
<ellipse style="fill:#FEFDEF;" cx="50.5" cy="35" rx="5" ry="4.5"/>
<g>
	<path style="fill:#1F212B;" d="M50,88c-0.256,0-0.512-0.098-0.707-0.293L44.586,83H29c-6.617,0-12-5.383-12-12V29   c0-6.617,5.383-12,12-12h42c6.617,0,12,5.383,12,12v42c0,6.617-5.383,12-12,12H55.414l-4.707,4.707C50.512,87.902,50.256,88,50,88z    M29,19c-5.514,0-10,4.486-10,10v42c0,5.514,4.486,10,10,10h16c0.265,0,0.52,0.105,0.707,0.293L50,85.586l4.293-4.293   C54.48,81.105,54.735,81,55,81h16c5.514,0,10-4.486,10-10V29c0-5.514-4.486-10-10-10H29z"/>
</g>
<g>
	<path style="fill:#1F212B;" d="M71,78H29c-3.86,0-7-3.141-7-7V29c0-3.859,3.14-7,7-7h37.5c0.276,0,0.5,0.224,0.5,0.5   S66.776,23,66.5,23H29c-3.309,0-6,2.691-6,6v42c0,3.309,2.691,6,6,6h42c3.309,0,6-2.691,6-6V51c0-0.276,0.224-0.5,0.5-0.5   S78,50.724,78,51v20C78,74.859,74.86,78,71,78z"/>
</g>
<g>
	<path style="fill:#1F212B;" d="M77.5,48c-0.276,0-0.5-0.224-0.5-0.5v-4c0-0.276,0.224-0.5,0.5-0.5s0.5,0.224,0.5,0.5v4   C78,47.776,77.776,48,77.5,48z"/>
</g>
<g>
	<path style="fill:#1F212B;" d="M77.5,42c-0.276,0-0.5-0.224-0.5-0.5v-2c0-0.276,0.224-0.5,0.5-0.5s0.5,0.224,0.5,0.5v2   C78,41.776,77.776,42,77.5,42z"/>
</g>
<g>
	<path style="fill:#1F212B;" d="M50.5,40c3.032,0,5.5-2.243,5.5-5s-2.468-5-5.5-5S45,32.243,45,35S47.468,40,50.5,40z M50.5,31   c2.481,0,4.5,1.794,4.5,4s-2.019,4-4.5,4S46,37.206,46,35S48.019,31,50.5,31z"/>
</g>
<g>
	<path style="fill:#1F212B;" d="M60.5,63h-4c-0.275,0-0.5-0.225-0.5-0.5v-2c0-0.276-0.224-0.5-0.5-0.5S55,60.224,55,60.5v2   c0,0.827,0.673,1.5,1.5,1.5H60v3H43v-3h3.5c0.827,0,1.5-0.673,1.5-1.5v-15c0-0.827-0.673-1.5-1.5-1.5H44v-3h11v14.5   c0,0.276,0.224,0.5,0.5,0.5s0.5-0.224,0.5-0.5v-15c0-0.276-0.224-0.5-0.5-0.5h-12c-0.276,0-0.5,0.224-0.5,0.5v4   c0,0.276,0.224,0.5,0.5,0.5h3c0.275,0,0.5,0.225,0.5,0.5v15c0,0.275-0.225,0.5-0.5,0.5h-4c-0.276,0-0.5,0.224-0.5,0.5v4   c0,0.276,0.224,0.5,0.5,0.5h18c0.276,0,0.5-0.224,0.5-0.5v-4C61,63.224,60.776,63,60.5,63z"/>
</g>
</svg>
