<svg id="Flat" height="512" viewBox="0 0 512 512" width="512" xmlns="http://www.w3.org/2000/svg"><path d="m88 128h144v264h-144z" fill="#396795"/><g fill="#8acce7"><path d="m112 152h32v32h-32z"/><path d="m176 152h32v32h-32z"/><path d="m112 216h32v32h-32z"/><path d="m176 216h32v32h-32z"/><path d="m112 280h32v32h-32z"/><path d="m112 344h32v32h-32z"/></g><rect fill="#c4d4e0" height="24" rx="8" width="160" x="80" y="104"/><path d="m120 64h80a16 16 0 0 1 16 16v24a0 0 0 0 1 0 0h-112a0 0 0 0 1 0 0v-24a16 16 0 0 1 16-16z" fill="#396795"/><path d="m176 272h192v216h-192z" fill="#eebe33"/><path d="m208 382v106h-32v-120h18a14.01538 14.01538 0 0 1 14 14z" fill="#e88604"/><g fill="#8acce7"><path d="m200 312h32v32h-32z"/><path d="m256 312h32v32h-32z"/><path d="m312 312h32v32h-32z"/><path d="m200 384h32v32h-32z"/><path d="m256 384h32v32h-32z"/><path d="m312 384h32v32h-32z"/></g><path d="m200 384h8v32h-8z" fill="#379ec3"/><path d="m368 328h88v160h-88z" fill="#396795"/><path d="m400 352h32v32h-32z" fill="#8acce7"/><path d="m400 408h32v32h-32z" fill="#8acce7"/><path d="m46 376h148a6 6 0 0 1 6 6v106a0 0 0 0 1 0 0h-160a0 0 0 0 1 0 0v-106a6 6 0 0 1 6-6z" fill="#eedc9a"/><path d="m72 456h32v32h-32z" fill="#8acce7"/><path d="m40 400h160v32h-160z" fill="#8acce7"/><path d="m64 400h16v32h-16z" fill="#379ec3"/><path d="m96 400h16v32h-16z" fill="#379ec3"/><path d="m128 400h16v32h-16z" fill="#379ec3"/><path d="m160 400h16v32h-16z" fill="#379ec3"/><path d="m256 440h32v48h-32z" fill="#8acce7"/><path d="m16 480h480v16h-480z" fill="#395166"/><path d="m488 112a88 88 0 0 0 -176 0c0 48.60106 88 152 88 152s88-103.39894 88-152z" fill="#e44b4d"/><circle cx="400" cy="112" fill="#8acce7" r="56"/></svg>