<?xml version="1.0" encoding="iso-8859-1"?>
<!-- Generator: Adobe Illustrator 21.1.0, SVG Export Plug-In . SVG Version: 6.00 Build 0)  -->
<svg xmlns="http://www.w3.org/2000/svg" xmlns:xlink="http://www.w3.org/1999/xlink" version="1.1" id="Layer_1" x="0px" y="0px" viewBox="0 0 64 64" style="enable-background:new 0 0 64 64;" xml:space="preserve">
<g>
	<path style="fill:#C5E4FA;" d="M61,11v42c0,1.105-0.895,2-2,2H5c-1.105,0-2-0.895-2-2V11c0-1.105,0.895-2,2-2h54   C60.105,9,61,9.895,61,11z"/>
	<polygon style="fill:#E3F2FF;" points="38.107,55 61,32.107 61,14 61,11.214 17.214,55  "/>
	<path style="fill:#E3F2FF;" d="M58.7,9.94L13.64,55H5.29l46-46H57C57.71,9,58.34,9.38,58.7,9.94z"/>
	<polygon style="fill:#E3F2FF;" points="47.71,9 3.5,53.21 3.5,49.25 43.75,9  "/>
	<polygon style="fill:#FFF8F8;" points="15.665,22.833 16.903,25.097 19.167,26.335 16.903,27.574 15.665,29.838 14.426,27.574    12.162,26.335 14.426,25.097  "/>
	<polygon style="fill:#FFF8F8;" points="54.581,22 55.436,23.564 57,24.419 55.436,25.274 54.581,26.838 53.726,25.274    52.162,24.419 53.726,23.564  "/>
	<polygon style="fill:#FFF8F8;" points="39.81,37.542 40.393,38.607 41.458,39.19 40.393,39.772 39.81,40.838 39.228,39.772    38.162,39.19 39.228,38.607  "/>
	<path style="fill:#CED8ED;" d="M49,45H15c-1.105,0-2,0.895-2,2v8h38v-8C51,45.895,50.105,45,49,45z"/>
	<g>
		<path style="fill:#8D6C9F;" d="M62,11c0-1.654-1.346-3-3-3H5c-1.654,0-3,1.346-3,3v42c0,1.654,1.346,3,3,3h8h38h8    c1.654,0,3-1.346,3-3V11z M14,54v-7c0-0.551,0.448-1,1-1h34c0.552,0,1,0.449,1,1v7H14z M59,54h-7v-7c0-1.654-1.346-3-3-3H15    c-1.654,0-3,1.346-3,3v7H5c-0.552,0-1-0.449-1-1V11c0-0.551,0.448-1,1-1h54c0.552,0,1,0.449,1,1v42C60,53.551,59.552,54,59,54z"/>
		<path style="fill:#8D6C9F;" d="M7,16c0.553,0,1-0.448,1-1v-2c0-0.552-0.447-1-1-1s-1,0.448-1,1v2C6,15.552,6.447,16,7,16z"/>
		<path style="fill:#8D6C9F;" d="M12,16c0.553,0,1-0.448,1-1v-2c0-0.552-0.447-1-1-1s-1,0.448-1,1v2C11,15.552,11.447,16,12,16z"/>
		<path style="fill:#8D6C9F;" d="M17,16c0.553,0,1-0.448,1-1v-2c0-0.552-0.447-1-1-1s-1,0.448-1,1v2C16,15.552,16.447,16,17,16z"/>
		<path style="fill:#8D6C9F;" d="M22,16c0.553,0,1-0.448,1-1v-2c0-0.552-0.447-1-1-1s-1,0.448-1,1v2C21,15.552,21.447,16,22,16z"/>
		<path style="fill:#8D6C9F;" d="M27,16c0.553,0,1-0.448,1-1v-2c0-0.552-0.447-1-1-1s-1,0.448-1,1v2C26,15.552,26.447,16,27,16z"/>
		<path style="fill:#8D6C9F;" d="M32,16c0.553,0,1-0.448,1-1v-2c0-0.552-0.447-1-1-1s-1,0.448-1,1v2C31,15.552,31.447,16,32,16z"/>
		<path style="fill:#8D6C9F;" d="M37,16c0.553,0,1-0.448,1-1v-2c0-0.552-0.447-1-1-1s-1,0.448-1,1v2C36,15.552,36.447,16,37,16z"/>
		<path style="fill:#8D6C9F;" d="M42,16c0.553,0,1-0.448,1-1v-2c0-0.552-0.447-1-1-1s-1,0.448-1,1v2C41,15.552,41.447,16,42,16z"/>
		<path style="fill:#8D6C9F;" d="M47,16c0.553,0,1-0.448,1-1v-2c0-0.552-0.447-1-1-1s-1,0.448-1,1v2C46,15.552,46.447,16,47,16z"/>
		<path style="fill:#8D6C9F;" d="M52,16c0.553,0,1-0.448,1-1v-2c0-0.552-0.447-1-1-1s-1,0.448-1,1v2C51,15.552,51.447,16,52,16z"/>
		<path style="fill:#8D6C9F;" d="M57,16c0.553,0,1-0.448,1-1v-2c0-0.552-0.447-1-1-1s-1,0.448-1,1v2C56,15.552,56.447,16,57,16z"/>
		<circle style="fill:#8D6C9F;" cx="20" cy="50" r="2"/>
		<circle style="fill:#8D6C9F;" cx="28" cy="50" r="2"/>
		<circle style="fill:#8D6C9F;" cx="36" cy="50" r="2"/>
		<circle style="fill:#8D6C9F;" cx="44" cy="50" r="2"/>
	</g>
</g>
</svg>
