<?xml version="1.0" encoding="iso-8859-1"?>
<!-- Generator: Adobe Illustrator 23.0.0, SVG Export Plug-In . SVG Version: 6.00 Build 0)  -->
<svg xmlns="http://www.w3.org/2000/svg" xmlns:xlink="http://www.w3.org/1999/xlink" version="1.1" id="Layer_1" x="0px" y="0px" viewBox="0 0 64 64" style="enable-background:new 0 0 64 64;" xml:space="preserve">
<g>
	<path style="fill:#DCA1A8;" d="M43,45.51l-3.88,0.95l-16.47-9.2l0.48,0.21l9.41,4.44c0.935,0.442,1.968,0.635,3,0.56l2.19-0.16   c1.464-0.099,2.865,0.611,3.65,1.85c0.037,0.058,0.07,0.118,0.1,0.18C41.776,44.946,42.338,45.379,43,45.51z"/>
</g>
<g>
	<path style="fill:#FAEFDE;" d="M25,48l5,2c2.517,1.008,5.336,0.95,7.81-0.16l2.95-1.33c0.734-0.301,1.22-1.007,1.24-1.8V46.3   c0.006-2.209-1.78-4.005-3.989-4.011c-0.1,0-0.201,0.003-0.301,0.011l-2.19,0.16c-1.032,0.075-2.065-0.118-3-0.56l-9.41-4.44   c-2.028-0.954-4.284-1.322-6.51-1.06L4.77,37.79c-1.014,0.117-1.777,0.979-1.77,2v12.65c0.001,1.105,0.897,1.999,2.002,1.998   c0.161,0,0.322-0.02,0.478-0.058L12,52.74c1.909-0.479,3.928-0.236,5.67,0.68l12.63,6.63c2.321,1.213,5.089,1.213,7.41,0L59,49   c1.227-0.629,1.998-1.891,2-3.27l0,0c-0.002-2.032-1.651-3.679-3.683-3.677c-0.309,0-0.617,0.04-0.917,0.117L42,45.93"/>
</g>
<g>
	<path style="fill:#EFD8BE;" d="M40.49,54.64l-2.78,1.44c-2.321,1.213-5.089,1.213-7.41,0l-12.59-6.66   c-1.753-0.927-3.788-1.169-5.71-0.68L3,51v1.44c0.001,1.105,0.897,1.999,2.002,1.998c0.161,0,0.322-0.02,0.478-0.058L12,52.74   c1.909-0.479,3.928-0.236,5.67,0.68l12.63,6.63c2.321,1.213,5.089,1.213,7.41,0l7.1-3.68l-0.34-0.6   C43.657,54.392,41.906,53.895,40.49,54.64z"/>
</g>
<g>
	<path style="fill:#FFF8EE;" d="M23.12,41.47l9.41,4.44c0.935,0.442,1.968,0.635,3,0.56l2.19-0.16   c1.466-0.097,2.867,0.617,3.65,1.86l0.1,0.18c0.399,0.897,1.391,1.372,2.34,1.12L60.91,45c-0.399-1.987-2.333-3.275-4.321-2.876   c-0.067,0.013-0.133,0.029-0.199,0.046L42,45.93l0,0c-0.201-2.159-2.086-3.765-4.25-3.62l-2.19,0.16   c-1.032,0.075-2.065-0.118-3-0.56l-9.41-4.44c-2.039-0.965-4.309-1.336-6.55-1.07L4.77,37.79c-1.014,0.117-1.777,0.979-1.77,2V42   l13.6-1.6C18.831,40.14,21.09,40.51,23.12,41.47z"/>
</g>
<g>
	<path style="fill:#FFF6EF;" d="M43,45.51l11.76-2.89l-11,2.84C43.511,45.52,43.254,45.537,43,45.51z"/>
</g>
<g>
	<path style="fill:#8D6C9F;" d="M9,40H7c-0.552,0-1,0.448-1,1s0.448,1,1,1h2c0.552,0,1-0.448,1-1S9.552,40,9,40z"/>
</g>
<g>
	<path style="fill:#8D6C9F;" d="M9,45H7c-0.552,0-1,0.448-1,1s0.448,1,1,1h2c0.552,0,1-0.448,1-1S9.552,45,9,45z"/>
</g>
<g>
	<path style="fill:#8D6C9F;" d="M9,50H7c-0.552,0-1,0.448-1,1s0.448,1,1,1h2c0.552,0,1-0.448,1-1S9.552,50,9,50z"/>
</g>
<g>
	<path style="fill:#8D6C9F;" d="M60.18,42.05c-1.134-0.879-2.61-1.185-4-0.83L42.74,44.7c-0.728-2.161-2.826-3.555-5.1-3.39   l-2.19,0.16C34.607,41.523,33.764,41.361,33,41l-9.41-4.44c-2.202-1.038-4.652-1.436-7.07-1.15L4.65,36.8   c-1.519,0.178-2.66,1.471-2.65,3v12.64c0,1.657,1.343,3,3,3c0.246,0,0.491-0.03,0.73-0.09l6.56-1.64c1.683-0.427,3.465-0.213,5,0.6   l12.59,6.63c2.612,1.366,5.728,1.366,8.34,0l21.3-11c2.296-1.198,3.187-4.031,1.989-6.328c-0.311-0.597-0.747-1.119-1.279-1.532   L60.18,42.05z M58.55,48.14l-21.3,11c-2.03,1.06-4.45,1.06-6.48,0l-12.59-6.6c-1.957-1.031-4.224-1.305-6.37-0.77l-6.57,1.64   c-0.536,0.133-1.078-0.194-1.211-0.73C4.007,52.592,3.997,52.501,4,52.41V39.78c-0.004-0.509,0.375-0.939,0.88-1l11.83-1.39   c2.054-0.237,4.134,0.109,6,1l9.41,4.44c1.088,0.513,2.29,0.737,3.49,0.65l2.19-0.16c1.652-0.122,3.09,1.12,3.212,2.772   c0.006,0.076,0.008,0.152,0.008,0.228v0.41c-0.001,0.393-0.232,0.749-0.59,0.91l-3,1.33c-2.217,0.993-4.742,1.047-7,0.15l-5-2   c-0.514-0.204-1.096,0.046-1.3,0.56c-0.204,0.514,0.046,1.096,0.56,1.3l5,2c2.773,1.104,5.875,1.039,8.6-0.18l3-1.33   c1.062-0.505,1.73-1.584,1.71-2.76l13.65-3.54c1.409-0.454,2.919,0.32,3.373,1.729c0.42,1.304-0.211,2.714-1.463,3.271L58.55,48.14   z"/>
</g>
<g>
	<path style="fill:#C2CDE7;" d="M57.26,21.902v-1.803c0.01-0.348-0.224-0.656-0.562-0.739l-3.762-0.939   c-0.261-0.067-0.465-0.271-0.532-0.532c-0.262-0.98-0.649-1.921-1.153-2.801c-0.132-0.229-0.132-0.51,0-0.739l1.996-3.333   c0.174-0.29,0.128-0.662-0.111-0.902l-1.271-1.271c-0.24-0.239-0.611-0.285-0.902-0.111l-3.311,2.018   c-0.229,0.132-0.51,0.132-0.739,0c-0.877-0.506-1.816-0.896-2.794-1.16c-0.261-0.067-0.465-0.271-0.532-0.532l-0.939-3.762   c-0.083-0.338-0.391-0.572-0.739-0.562h-1.811c-0.348-0.01-0.656,0.224-0.739,0.562L38.42,9.058   c-0.067,0.261-0.271,0.465-0.532,0.532c-0.98,0.264-1.922,0.654-2.801,1.16c-0.229,0.132-0.51,0.132-0.739,0l-3.333-1.996   c-0.29-0.174-0.662-0.128-0.902,0.111l-1.249,1.279c-0.239,0.24-0.285,0.611-0.111,0.902l1.996,3.304   c0.132,0.229,0.132,0.51,0,0.739c-0.506,0.877-0.896,1.816-1.16,2.794c-0.067,0.261-0.271,0.465-0.532,0.532l-3.755,0.968   c-0.338,0.083-0.572,0.391-0.562,0.739v1.803c-0.01,0.348,0.224,0.656,0.562,0.739l3.762,0.939   c0.261,0.067,0.465,0.271,0.532,0.532c0.264,0.972,0.651,1.906,1.153,2.779c0.132,0.229,0.132,0.51,0,0.739l-1.996,3.333   c-0.174,0.29-0.128,0.662,0.111,0.902l1.271,1.271c0.24,0.239,0.611,0.285,0.902,0.111l3.311-2.018c0.229-0.132,0.51-0.132,0.739,0   c0.877,0.506,1.816,0.896,2.794,1.16c0.261,0.067,0.465,0.271,0.532,0.532l0.939,3.762c0.083,0.338,0.391,0.572,0.739,0.562h1.803   c0.348,0.01,0.656-0.224,0.739-0.562l0.939-3.762c0.067-0.261,0.271-0.465,0.532-0.532c0.983-0.263,1.927-0.654,2.809-1.16   c0.229-0.132,0.51-0.132,0.739,0l3.333,1.996c0.29,0.174,0.662,0.128,0.902-0.111l1.271-1.271c0.239-0.24,0.285-0.611,0.111-0.902   l-2.018-3.311c-0.132-0.229-0.132-0.51,0-0.739c0.506-0.877,0.896-1.816,1.16-2.794c0.067-0.261,0.271-0.465,0.532-0.532   l3.762-0.939C57.044,22.561,57.275,22.25,57.26,21.902z"/>
</g>
<g>
	<circle style="fill:#ACB7D0;" cx="41" cy="21" r="8"/>
</g>
<g>
	<circle style="fill:#F9DD8F;" cx="41" cy="21" r="4"/>
</g>
<g>
	<path style="fill:#8D6C9F;" d="M43,38h-4c-0.467,0-0.871-0.323-0.975-0.778l-0.869-3.815c-0.766-0.236-1.506-0.543-2.213-0.915   l-3.311,2.083c-0.395,0.246-0.908,0.19-1.239-0.14l-2.828-2.828c-0.33-0.33-0.388-0.845-0.14-1.239l2.083-3.311   c-0.372-0.707-0.679-1.447-0.915-2.213l-3.815-0.869C24.323,23.871,24,23.467,24,23v-4c0-0.467,0.323-0.871,0.778-0.975   l3.815-0.869c0.236-0.766,0.543-1.506,0.915-2.213l-2.083-3.311c-0.248-0.395-0.19-0.909,0.14-1.239l2.828-2.828   c0.331-0.331,0.845-0.386,1.239-0.14l3.311,2.083c0.707-0.372,1.447-0.679,2.213-0.915l0.869-3.815C38.129,4.323,38.533,4,39,4h4   c0.467,0,0.871,0.323,0.975,0.778l0.869,3.815c0.766,0.236,1.506,0.543,2.213,0.915l3.311-2.083   c0.395-0.246,0.908-0.191,1.239,0.14l2.828,2.828c0.33,0.33,0.388,0.845,0.14,1.239l-2.083,3.311   c0.372,0.707,0.679,1.447,0.915,2.213l3.815,0.869C57.677,18.129,58,18.533,58,19v4c0,0.467-0.323,0.871-0.778,0.975l-3.815,0.869   c-0.236,0.766-0.543,1.506-0.915,2.213l2.083,3.311c0.248,0.395,0.19,0.909-0.14,1.239l-2.828,2.828   c-0.331,0.33-0.845,0.386-1.239,0.14l-3.311-2.083c-0.707,0.372-1.447,0.679-2.213,0.915l-0.869,3.815   C43.871,37.677,43.467,38,43,38z M39.798,36h2.404l0.823-3.615c0.083-0.365,0.362-0.653,0.725-0.747   c0.996-0.257,1.948-0.65,2.829-1.17c0.32-0.19,0.724-0.184,1.04,0.015l3.138,1.974l1.699-1.699l-1.974-3.138   c-0.199-0.316-0.205-0.718-0.015-1.04c0.52-0.881,0.913-1.833,1.17-2.829c0.094-0.362,0.382-0.642,0.747-0.725L56,22.202v-2.404   l-3.615-0.823c-0.365-0.083-0.653-0.362-0.747-0.725c-0.257-0.996-0.65-1.948-1.17-2.829c-0.19-0.322-0.185-0.724,0.015-1.04   l1.974-3.138l-1.699-1.699l-3.138,1.974c-0.315,0.199-0.719,0.205-1.04,0.015c-0.881-0.52-1.833-0.913-2.829-1.17   c-0.362-0.094-0.642-0.382-0.725-0.747L42.202,6h-2.404l-0.823,3.615c-0.083,0.365-0.362,0.653-0.725,0.747   c-0.996,0.257-1.948,0.65-2.829,1.17c-0.32,0.189-0.724,0.185-1.04-0.015l-3.138-1.974l-1.699,1.699l1.974,3.138   c0.199,0.316,0.205,0.718,0.015,1.04c-0.52,0.881-0.913,1.833-1.17,2.829c-0.094,0.362-0.382,0.642-0.747,0.725L26,19.798v2.404   l3.615,0.823c0.365,0.083,0.653,0.362,0.747,0.725c0.257,0.996,0.65,1.948,1.17,2.829c0.19,0.322,0.185,0.724-0.015,1.04   l-1.974,3.138l1.699,1.699l3.138-1.974c0.317-0.197,0.72-0.205,1.04-0.015c0.881,0.52,1.833,0.913,2.829,1.17   c0.362,0.094,0.642,0.382,0.725,0.747L39.798,36z"/>
</g>
<g>
	<path style="fill:#8D6C9F;" d="M41,26c-2.757,0-5-2.243-5-5s2.243-5,5-5s5,2.243,5,5S43.757,26,41,26z M41,18c-1.654,0-3,1.346-3,3   s1.346,3,3,3s3-1.346,3-3S42.654,18,41,18z"/>
</g>
<g>
	<circle style="fill:#8D6C9F;" cx="41" cy="21" r="1"/>
</g>
<g>
	<path style="fill:#8D6C9F;" d="M47.24,17c-0.293,0-0.583-0.128-0.781-0.374c-0.303-0.378-0.668-0.739-1.084-1.073   c-0.432-0.345-0.501-0.975-0.155-1.406c0.346-0.43,0.974-0.5,1.405-0.155c0.53,0.425,1,0.89,1.395,1.381   c0.346,0.431,0.276,1.06-0.154,1.406C47.681,16.928,47.46,17,47.24,17z"/>
</g>
<g>
	<path style="fill:#8D6C9F;" d="M41,30c-4.963,0-9-4.038-9-9s4.037-9,9-9c0.347,0,0.703,0.024,1.124,0.077   c0.548,0.068,0.937,0.568,0.868,1.116c-0.069,0.548-0.566,0.941-1.116,0.868C41.589,14.026,41.298,14,41,14c-3.859,0-7,3.14-7,7   s3.141,7,7,7s7-3.14,7-7c0-0.295-0.021-0.585-0.059-0.87c-0.072-0.548,0.313-1.05,0.861-1.122c0.546-0.071,1.05,0.314,1.121,0.861   C49.975,20.253,50,20.633,50,21C50,25.962,45.963,30,41,30z"/>
</g>
</svg>
