<?xml version="1.0"?>
<svg xmlns="http://www.w3.org/2000/svg" id="Layer_1" data-name="Layer 1" viewBox="0 0 64 64"><title>Icons8 RSL Colored Part 6</title><path d="M55.11,53H3a2,2,0,0,1-2-2V15a2,2,0,0,1,2-2H55a2,2,0,0,1,2,2l.11,36A2,2,0,0,1,55.11,53Z" style="fill:#faefde;"/><path d="M57,16.77l-28,20L1,17V16c0-1.1.9-3,2-3H55c1.1,0,2,1.67,2,2.77Z" style="fill:#fff7f0;"/><path d="M56,53H2c-.55,0-1-.22-1-.77V52a4,4,0,0,1,4-4H53.11a4,4,0,0,1,4,4v.23C57.11,52.78,56.55,53,56,53Z" style="fill:#efd8be;"/><path d="M2.89,12.77H55a2,2,0,0,1,2,2h0A2.21,2.21,0,0,1,55,17H3A2.3,2.3,0,0,1,.89,14.77h0A2,2,0,0,1,2.89,12.77Z" style="fill:#fff;"/><circle cx="51" cy="47" r="12" style="fill:#72caaf;"/><path d="M10,46a1,1,0,0,0-1,1v2a1,1,0,0,0,2,0V47A1,1,0,0,0,10,46Z" style="fill:#8d6c9f;"/><path d="M5,46a1,1,0,0,0-1,1v2a1,1,0,0,0,2,0V47A1,1,0,0,0,5,46Z" style="fill:#8d6c9f;"/><path d="M15,46a1,1,0,0,0-1,1v2a1,1,0,0,0,2,0V47A1,1,0,0,0,15,46Z" style="fill:#8d6c9f;"/><path d="M20,46a1,1,0,0,0-1,1v2a1,1,0,0,0,2,0V47A1,1,0,0,0,20,46Z" style="fill:#8d6c9f;"/><path d="M25,46a1,1,0,0,0-1,1v2a1,1,0,0,0,2,0V47A1,1,0,0,0,25,46Z" style="fill:#8d6c9f;"/><path d="M30,46a1,1,0,0,0-1,1v2a1,1,0,0,0,2,0V47A1,1,0,0,0,30,46Z" style="fill:#8d6c9f;"/><path d="M35,46a1,1,0,0,0-1,1v2a1,1,0,0,0,2,0V47A1,1,0,0,0,35,46Z" style="fill:#8d6c9f;"/><path d="M58,36V15a3,3,0,0,0-3-3H3a3,3,0,0,0-3,3V51a3,3,0,0,0,3,3H40A13,13,0,1,0,58,36ZM2,15a1,1,0,0,1,1-1H55a1,1,0,0,1,1,1v1.21L30.17,34.92a2,2,0,0,1-2.35,0L2,16.21ZM3,52a1,1,0,0,1-1-1V45.56L19.57,34.85a1,1,0,0,0-1-1.71L2,43.22V18.68L26.65,36.54a4,4,0,0,0,4.69,0L56,18.68V35a13,13,0,0,0-11.89,1l-4.64-2.83a1,1,0,1,0-1,1.7l4,2.41A13,13,0,0,0,39,52Zm48,6a11,11,0,0,1-6.81-19.64,10.76,10.76,0,0,1,1.87-1.19A11,11,0,1,1,51,58Z" style="fill:#8d6c9f;"/><path d="M51.71,41.29a1,1,0,0,0-1.41,1.41L53.59,46H44a1,1,0,0,0,0,2h9.59l-3.29,3.29a1,1,0,1,0,1.41,1.41l5-5a1,1,0,0,0,0-1.41Z" style="fill:#f9efde;"/></svg>
