<?xml version="1.0" encoding="iso-8859-1"?>
<!-- Generator: Adobe Illustrator 19.1.1, SVG Export Plug-In . SVG Version: 6.00 Build 0)  -->
<svg version="1.1" id="Layer_1" xmlns="http://www.w3.org/2000/svg" xmlns:xlink="http://www.w3.org/1999/xlink" x="0px" y="0px"
	 viewBox="0 0 40 40" style="enable-background:new 0 0 40 40;" xml:space="preserve">
<g>
	<rect x="10.5" y="10.5" style="fill:#C5D4DE;" width="27" height="27"/>
	<g>
		<path style="fill:#788B9C;" d="M37,11v26H11V11H37 M38,10H10v28h28V10L38,10z"/>
	</g>
</g>
<g>
	<rect x="6.5" y="6.5" style="fill:#E1EBF2;" width="27" height="27"/>
	<g>
		<path style="fill:#788B9C;" d="M33,7v26H7V7H33 M34,6H6v28h28V6L34,6z"/>
	</g>
</g>
<g>
	<rect x="2.5" y="2.5" style="fill:#FFFFFF;" width="27" height="27"/>
	<g>
		<path style="fill:#788B9C;" d="M29,3v26H3V3H29 M30,2H2v28h28V2L30,2z"/>
	</g>
</g>
<g>
	<rect x="5.5" y="5.5" style="fill:#FFC49C;" width="21" height="18"/>
	<g>
		<path style="fill:#A16A4A;" d="M26,6v17H6V6H26 M27,5H5v19h22V5L27,5z"/>
	</g>
</g>
<polygon style="fill:#A16A4A;" points="19,14 16,17 22,23 26,23 26,21 "/>
<circle style="fill:#FFFFFF;" cx="21" cy="10" r="2"/>
<polygon style="fill:#E09367;" points="22,23 6,23 6,19 12,13 "/>
</svg>
