<?xml version="1.0" encoding="utf-8"?>
<!-- Generator: Adobe Illustrator 18.1.1, SVG Export Plug-In . SVG Version: 6.00 Build 0)  -->
<svg version="1.1"  xmlns="http://www.w3.org/2000/svg" xmlns:xlink="http://www.w3.org/1999/xlink" x="0px" y="0px"
	 viewBox="0 0 48 48" enable-background="new 0 0 48 48" xml:space="preserve">
<rect x="10" y="7" fill="#AB6400" width="28" height="7"/>
<g>
	<g>
		<polygon fill="#8A5100" points="10,21 6,21 6,13 10,7 		"/>
	</g>
	<g>
		<polygon fill="#8A5100" points="38,21 42,21 42,13 38,7 		"/>
	</g>
</g>
<polygon fill="#4FC3F7" points="39,14 15,14 32,5 "/>
<polygon fill="#81D4FA" points="36,14 10,14 26,3 "/>
<polygon fill="#B3E5FC" points="33,14 9,14 15,2 "/>
<g>
	<path fill="#FF9800" d="M40,41H8c-1.1,0-2-0.9-2-2V13h36v26C42,40.1,41.1,41,40,41z"/>
</g>
<path fill="#8A5100" d="M27.5,20h-7c-0.8,0-1.5-0.7-1.5-1.5v0c0-0.8,0.7-1.5,1.5-1.5h7c0.8,0,1.5,0.7,1.5,1.5v0
	C29,19.3,28.3,20,27.5,20z"/>
</svg>
