<?xml version="1.0"?>
<svg xmlns="http://www.w3.org/2000/svg" id="Layer_1" data-name="Layer 1" viewBox="0 0 64 64"><title>Dusk Part 1</title><path d="M0,32S14.33,9,32,9,64,32,64,32,49.67,55,32,55,0,32,0,32Z" style="fill:#faefde;"/><path d="M63.92,32.13,64,32S49.67,9,32,9,0,32,0,32l.08.13A184.68,184.68,0,0,0,32,35,184.68,184.68,0,0,0,63.92,32.13Z" style="fill:#fff7f0;"/><path d="M32,16c12.6,0,23.8,7.87,30.93,14.41C59.31,25.2,46.84,9,32,9S4.69,25.2,1.07,30.41C8.2,23.87,19.4,16,32,16Z" style="fill:#efd8be;"/><circle cx="32" cy="32" r="17" style="fill:#85cbf8;"/><circle cx="32" cy="32" r="5" style="fill:#8b8e98;"/><path d="M63.34,29v0a7,7,0,0,0-.48-.87C58.86,22.1,47.88,8,32,8S5.14,22.1,1.15,28.16A7,7,0,0,0,.67,29v0a7,7,0,0,0,.49,6.79C5.14,41.9,16.12,56,32,56S58.86,41.9,62.85,35.84A7,7,0,0,0,63.34,29ZM32,10c11.44,0,20.26,7.93,25.46,14.24C50.67,19.38,41.83,15,32,15S13.33,19.38,6.54,24.24C11.74,17.93,20.56,10,32,10ZM48,32A16,16,0,1,1,24.37,17.93h0a31.87,31.87,0,0,1,15.21,0A16,16,0,0,1,48,32Zm13.18,2.74C57.37,40.53,46.9,54,32,54S6.63,40.53,2.82,34.74a5,5,0,0,1-.42-4.67A58.17,58.17,0,0,1,18.94,19.62a18,18,0,1,0,26.13,0A58.19,58.19,0,0,1,61.6,30.07,5,5,0,0,1,61.18,34.74Z" style="fill:#8d6c9f;"/><path d="M21,33a1,1,0,0,0,0-2H19a1,1,0,0,0,0,2Z" style="fill:#8d6c9f;"/><path d="M32,42a1,1,0,0,0-1,1v2a1,1,0,0,0,2,0V43A1,1,0,0,0,32,42Z" style="fill:#8d6c9f;"/><path d="M23.51,39.07,22.1,40.49a1,1,0,1,0,1.41,1.41l1.41-1.41a1,1,0,0,0-1.41-1.41Z" style="fill:#8d6c9f;"/><path d="M23.51,22.1a1,1,0,0,0-1.41,1.41l1.41,1.41a1,1,0,0,0,1.41-1.41Z" style="fill:#8d6c9f;"/><path d="M22.73,35.75a1,1,0,0,0-1.3-.55l-1.85.75a1,1,0,1,0,.75,1.85L22.17,37A1,1,0,0,0,22.73,35.75Z" style="fill:#8d6c9f;"/><path d="M28.09,41.21a1,1,0,0,0-1.31.53L26,43.58a1,1,0,0,0,1.84.78l.78-1.84A1,1,0,0,0,28.09,41.21Z" style="fill:#8d6c9f;"/><path d="M19.64,27.84l1.84.78a1,1,0,1,0,.78-1.84L20.42,26a1,1,0,0,0-.78,1.84Z" style="fill:#8d6c9f;"/><path d="M26,32a6,6,0,1,0,6-6A6,6,0,0,0,26,32Zm10.38,0A4.38,4.38,0,1,1,32,27.63,4.38,4.38,0,0,1,36.38,32Z" style="fill:#8d6c9f;"/><path d="M26.61,19.08a1,1,0,1,0,.77,1.85,11.92,11.92,0,0,1,7.08-.67,1,1,0,1,0,.41-2A13.93,13.93,0,0,0,26.61,19.08Z" style="fill:#8d6c9f;"/><path d="M43,36.78a11.92,11.92,0,0,1-6.6,6.38A1,1,0,0,0,37.13,45,14,14,0,0,0,44.3,25.32a1,1,0,0,0-1.76,1A11.94,11.94,0,0,1,43,36.78Z" style="fill:#8d6c9f;"/><path d="M38.22,21.73A11.85,11.85,0,0,1,40,23a1,1,0,0,0,1.33-1.5,14,14,0,0,0-2-1.5,1,1,0,1,0-1,1.71Z" style="fill:#8d6c9f;"/></svg>
