<?xml version="1.0" encoding="utf-8"?>
<!-- Generator: Adobe Illustrator 19.1.1, SVG Export Plug-In . SVG Version: 6.00 Build 0)  -->
<svg version="1.1"  xmlns="http://www.w3.org/2000/svg" xmlns:xlink="http://www.w3.org/1999/xlink" x="0px" y="0px"
	 viewBox="0 0 48 48" enable-background="new 0 0 48 48" xml:space="preserve">
<path fill="#455A64" d="M40,32H8V10c0-0.6,0.4-1,1-1h30c0.6,0,1,0.4,1,1V32z"/>
<rect x="10" y="11" fill="#BBDEFB" width="28" height="18"/>
<polygon fill="#CFD8DC" points="40,31 8,31 3,37 3,39 45,39 45,37 "/>
<polygon fill="#546E7A" points="10,32 38,32 40,35 8,35 "/>
<polygon fill="#90A4AE" points="28,35 20,35 19,37 29,37 "/>
<path fill="#42A5F5" d="M12,15h10v2H12V15z M22,19H12v2h10V19z M12,25h10v-2H12V25z M26,17h10v-2H26V17z M36,19H26v2h10V19z M26,25
	h7v-2h-7V25z"/>
</svg>
