<?xml version="1.0"?>
<svg xmlns="http://www.w3.org/2000/svg" id="Layer_1" data-name="Layer 1" viewBox="0 0 64 64"><title>Icons8 RSL Colored Part 9</title><path d="M32,5.09C14.91,5.09,1,16.21,1,29.88c0,8.6,5.38,16.39,14.44,21a22.19,22.19,0,0,1-2.91,9.61,1,1,0,0,0,.83,1.47l.21,0c7.33-1.63,10.77-5.81,12-7.76a38.7,38.7,0,0,0,6.41.54c17.09,0,31-11.12,31-24.79S49.09,5.09,32,5.09Z" style="fill:#f9e3ae;"/><path d="M1.64,34.95c1.67,6.53,6.56,12.24,13.8,15.89a22.2,22.2,0,0,1-2.91,9.61,1,1,0,0,0,.83,1.47l.21,0c7.33-1.63,10.77-5.81,12-7.76a38.7,38.7,0,0,0,6.41.54c14.89,0,27.36-8.44,30.33-19.65a4,4,0,0,0-3.88-5H5.54A4,4,0,0,0,1.64,34.95Z" style="fill:#f6d397;"/><ellipse cx="32" cy="30" rx="24" ry="19" style="fill:#85cbf8;"/><path d="M21.05,25a4.93,4.93,0,0,1,.34-1.78,4.84,4.84,0,0,1,1-1.61,5.25,5.25,0,0,1,1.68-1.17A5.4,5.4,0,0,1,26.34,20a7,7,0,0,1,2.64.51A6,6,0,0,1,31.14,22a6.38,6.38,0,0,1,1.17,2.13,8.18,8.18,0,0,1,.41,2.61,12,12,0,0,1-3.57,8.71,11.7,11.7,0,0,1-1.71,1.41,18.48,18.48,0,0,1-1.82,1.1l-1,.51a1.53,1.53,0,0,1-1.92-.53l-1-1.43a1.53,1.53,0,0,1,.62-2.24h0a9.28,9.28,0,0,0,1.75-1.1,5.9,5.9,0,0,0,1.37-1.54,4.35,4.35,0,0,0,.62-2.06,5.55,5.55,0,0,1-3.5-1.17A4,4,0,0,1,21.05,25Z" style="fill:#faefde;"/><path d="M34.53,25a4.93,4.93,0,0,1,.34-1.78,4.84,4.84,0,0,1,1-1.61,5.25,5.25,0,0,1,1.68-1.17A5.4,5.4,0,0,1,39.81,20a7,7,0,0,1,2.64.51A6,6,0,0,1,44.61,22a6.38,6.38,0,0,1,1.17,2.13,8.18,8.18,0,0,1,.41,2.61,12,12,0,0,1-3.57,8.71,11.66,11.66,0,0,1-1.71,1.41,18.37,18.37,0,0,1-1.82,1.1l-1,.51a1.53,1.53,0,0,1-1.92-.53l-1-1.43a1.53,1.53,0,0,1,.62-2.24h0a9.28,9.28,0,0,0,1.75-1.1,5.9,5.9,0,0,0,1.37-1.54,4.35,4.35,0,0,0,.62-2.06A5.55,5.55,0,0,1,36,28.37,4,4,0,0,1,34.53,25Z" style="fill:#faefde;"/><path d="M32,4C14.36,4,0,15.56,0,29.76,0,38.63,5.56,46.68,14.91,51.4a22.91,22.91,0,0,1-3,9.92,1,1,0,0,0,.86,1.51l.22,0c7.57-1.68,11.12-6,12.4-8a40,40,0,0,0,6.62.55c17.64,0,32-11.48,32-25.59S49.64,4,32,4Zm0,49.34a38,38,0,0,1-6.94-.64,1,1,0,0,0-1.06.5c-.67,1.23-3.2,5.06-9.28,7.05a26,26,0,0,0,2.23-9.42,1,1,0,0,0-.57-.95C7.38,45.56,2,38,2,29.76,2,16.66,15.46,6,32,6S62,16.66,62,29.76,48.54,53.34,32,53.34Z" style="fill:#8d6c9f;"/><path d="M31.71,45.69a1,1,0,0,0-.91,1.08l.17,2a1,1,0,0,0,1,.91h.09A1,1,0,0,0,33,48.59l-.17-2A1,1,0,0,0,31.71,45.69Z" style="fill:#8d6c9f;"/><path d="M12.2,37l-1.64,1.15a1,1,0,1,0,1.14,1.64l1.64-1.15A1,1,0,0,0,12.2,37Z" style="fill:#8d6c9f;"/><path d="M15.71,41.2l-1.29,1.53A1,1,0,0,0,15.95,44l1.29-1.53a1,1,0,1,0-1.53-1.29Z" style="fill:#8d6c9f;"/><path d="M21.52,43.88a1,1,0,0,0-1.33.48l-.85,1.81a1,1,0,0,0,1.81.85L22,45.21A1,1,0,0,0,21.52,43.88Z" style="fill:#8d6c9f;"/><path d="M26.49,45.46a1,1,0,0,0-1.16.81l-.35,2a1,1,0,0,0,.81,1.16l.18,0a1,1,0,0,0,1-.83l.35-2A1,1,0,0,0,26.49,45.46Z" style="fill:#8d6c9f;"/><path d="M9,30c0-9.92,10.3-18,23-18a27.89,27.89,0,0,1,11.55,2.45,1,1,0,0,0,.83-1.82A29.91,29.91,0,0,0,32,10C18.24,10,7,19,7,30a16.31,16.31,0,0,0,.5,4,1,1,0,0,0,1,.75,1,1,0,0,0,.25,0,1,1,0,0,0,.72-1.21A14.29,14.29,0,0,1,9,30Z" style="fill:#8d6c9f;"/><path d="M54.47,21.29a1,1,0,1,0-1.71,1A14.69,14.69,0,0,1,55,30c0,8.19-7.06,15.36-17.17,17.42a1,1,0,0,0,.2,2l.2,0C49.24,47.13,57,39.16,57,30A16.66,16.66,0,0,0,54.47,21.29Z" style="fill:#8d6c9f;"/><path d="M50.1,18.94a1,1,0,1,0,1.42-1.41A22.82,22.82,0,0,0,48.8,15.2a1,1,0,0,0-1.18,1.62A21,21,0,0,1,50.1,18.94Z" style="fill:#8d6c9f;"/><path d="M32.71,26.72a8.18,8.18,0,0,0-.41-2.61A6.38,6.38,0,0,0,31.14,22,6,6,0,0,0,29,20.51,7,7,0,0,0,26.34,20a5.4,5.4,0,0,0-2.23.45,5.25,5.25,0,0,0-1.68,1.17,4.84,4.84,0,0,0-1,1.61A4.93,4.93,0,0,0,21.05,25a4,4,0,0,0,1.51,3.36,5.55,5.55,0,0,0,3.5,1.17,4.35,4.35,0,0,1-.62,2.06,5.9,5.9,0,0,1-1.37,1.54,9.28,9.28,0,0,1-1.75,1.1h0a1.53,1.53,0,0,0-.62,2.24l1,1.43a1.53,1.53,0,0,0,1.92.53l1-.51a18.48,18.48,0,0,0,1.82-1.1,11.69,11.69,0,0,0,1.71-1.41,12,12,0,0,0,3.57-8.71Zm-2.77,4A10.22,10.22,0,0,1,27.73,34a9.75,9.75,0,0,1-1.42,1.16,16.59,16.59,0,0,1-1.62,1l-.61.3-.44-.66a11.39,11.39,0,0,0,1.68-1.1,7.93,7.93,0,0,0,1.83-2.06,6.34,6.34,0,0,0,.91-3,2,2,0,0,0-2-2.12,3.58,3.58,0,0,1-2.28-.75A2,2,0,0,1,23.05,25a2.92,2.92,0,0,1,.21-1.07,2.84,2.84,0,0,1,.61-1,3.24,3.24,0,0,1,1-.72A3.45,3.45,0,0,1,26.34,22a5,5,0,0,1,1.89.37,4,4,0,0,1,1.41.95,4.46,4.46,0,0,1,.77,1.43,6.22,6.22,0,0,1,.31,2A10.3,10.3,0,0,1,29.94,30.75Z" style="fill:#8d6c9f;"/><path d="M38,38.44l1-.51a18.36,18.36,0,0,0,1.82-1.1,11.66,11.66,0,0,0,1.71-1.41,12,12,0,0,0,3.57-8.71,8.18,8.18,0,0,0-.41-2.61A6.38,6.38,0,0,0,44.61,22a6,6,0,0,0-2.16-1.47A7,7,0,0,0,39.81,20a5.4,5.4,0,0,0-2.23.45,5.25,5.25,0,0,0-1.68,1.17,4.84,4.84,0,0,0-1,1.61A4.93,4.93,0,0,0,34.53,25,4,4,0,0,0,36,28.37a5.55,5.55,0,0,0,3.5,1.17,4.35,4.35,0,0,1-.62,2.06,5.9,5.9,0,0,1-1.37,1.54,9.28,9.28,0,0,1-1.75,1.1h0a1.53,1.53,0,0,0-.62,2.24l1,1.43a1.53,1.53,0,0,0,1.92.53Zm.74-3.74a7.93,7.93,0,0,0,1.83-2.06,6.34,6.34,0,0,0,.91-3,2,2,0,0,0-2-2.12,3.58,3.58,0,0,1-2.28-.75A2,2,0,0,1,36.53,25a2.92,2.92,0,0,1,.21-1.07,2.84,2.84,0,0,1,.61-1,3.24,3.24,0,0,1,1-.72A3.45,3.45,0,0,1,39.81,22a5,5,0,0,1,1.89.37,4,4,0,0,1,1.41.95,4.46,4.46,0,0,1,.77,1.43,6.22,6.22,0,0,1,.31,2,10,10,0,0,1-3,7.3,9.72,9.72,0,0,1-1.42,1.16,16.46,16.46,0,0,1-1.62,1l-.61.3-.44-.66A11.4,11.4,0,0,0,38.79,34.7Z" style="fill:#8d6c9f;"/></svg>
