<svg width="36" height="36" viewBox="0 0 36 36" fill="none" xmlns="http://www.w3.org/2000/svg">
<path d="M30.0375 9.95574L25.8031 5.72139C25.3126 5.98146 24.8103 6.22118 24.2847 6.41839C22.7095 7.00877 21.3087 7.91159 20.1193 9.10098L18.1276 11.0921H29.5081C29.6689 10.7027 29.844 10.323 30.0375 9.95574Z" fill="#529F45"/>
<path d="M33.8957 12.3247H10.4777H6.78013C6.78013 12.3247 6.78013 12.3247 6.77951 12.3247H1.84879C0.830107 12.3247 0 13.1541 0 14.1734C0 15.1927 0.830107 16.0222 1.84879 16.0222H33.8957C34.9144 16.0222 35.7439 15.1927 35.7439 14.1734C35.7439 13.1541 34.9144 12.3247 33.8957 12.3247Z" fill="#529F45"/>
<path d="M11.0897 11.0631C14.338 10.771 16.9337 8.17841 17.2283 4.93009H14.7602C14.616 6.83742 13.8111 8.61165 12.4443 9.97852C12.0289 10.3939 11.5729 10.7532 11.0897 11.0631Z" fill="#529F45"/>
<path d="M31.798 7.42474L28.3401 3.94902C27.8829 4.3576 27.404 4.73537 26.8975 5.07246L30.6844 8.8594C31.019 8.35468 31.3937 7.87893 31.798 7.42474Z" fill="#529F45"/>
<path d="M33.0959 6.98226C33.3892 7.27684 33.7781 7.43892 34.1922 7.43892C34.6063 7.43892 34.9952 7.27684 35.2873 6.98226C35.8943 6.37278 35.8943 5.37998 35.2879 4.7705L30.9963 0.456651C30.7035 0.162077 30.3141 0 29.9005 0C29.487 0 29.0975 0.162077 28.8054 0.456651C28.1984 1.06675 28.1984 2.05894 28.8048 2.66842L33.0959 6.98226Z" fill="#529F45"/>
<path d="M11.1011 2.36336C11.1572 2.0275 11.4758 1.80195 11.8104 1.85679C12.1463 1.91287 12.3731 2.23025 12.317 2.56611C11.8967 5.08601 10.846 7.48328 9.27758 9.49969L8.14982 10.9491C9.43719 10.686 10.621 10.0574 11.5719 9.10713C12.8519 7.82654 13.5569 6.12442 13.5569 4.31384V0.0271072C10.1065 0.339553 7.3949 3.24832 7.3949 6.77827V9.91197L8.3045 8.74292C9.74779 6.88797 10.7147 4.68174 11.1011 2.36336Z" fill="#529F45"/>
<path d="M6.16386 10.5672L6.16324 7.72992C4.1875 6.46905 2.59015 4.70961 1.54004 2.60816L1.29784 2.12501L2.39972 1.57345L2.64192 2.05722C3.47695 3.72791 4.69469 5.15949 6.18974 6.25705C6.24767 5.36224 6.44673 4.50501 6.77581 3.71373C5.15565 1.55311 2.68259 0.201031 0.000610352 0.021698V1.84954C0.000610352 5.79917 2.49771 9.27613 6.16386 10.5672Z" fill="#529F45"/>
<path d="M9.97122 31.1928C10.4464 31.4627 10.7902 31.9181 10.9159 32.4432C11.033 32.9325 10.9492 33.4286 10.6781 33.8384C10.5302 34.0621 10.4611 34.3247 10.4803 34.5977C10.5234 35.2293 11.1193 35.7433 11.8083 35.7433H23.9357C24.6253 35.7433 25.2213 35.2293 25.2644 34.5983C25.2829 34.3253 25.2145 34.0627 25.0666 33.839C24.7961 33.4292 24.7116 32.9331 24.8287 32.4438C24.9544 31.9181 25.2989 31.4627 25.7734 31.1934C30.7824 28.3481 33.8952 23.007 33.8958 17.2554H1.8501C1.84948 23.007 4.961 28.3475 9.97122 31.1928ZM31.2261 19.6138L32.4402 19.8264C31.6224 24.4897 28.5805 28.509 24.3037 30.5772L23.7675 29.4679C27.6882 27.5716 30.4762 23.8876 31.2261 19.6138ZM19.1049 18.4873H20.3368V19.7192H19.1049V18.4873ZM17.8717 18.4873V19.7192H3.08201V18.4873H17.8717Z" fill="#529F45"/>
</svg>
